<svg width="46" height="45" viewBox="0 0 46 45" fill="none" xmlns="http://www.w3.org/2000/svg">
<path d="M11.75 12.8963V11.25C11.75 8.92005 13.6388 7.03125 15.9688 7.03125H30.0312C32.3612 7.03125 34.25 8.92005 34.25 11.25V12.8963M11.75 12.8963C12.1898 12.7408 12.6632 12.6562 13.1562 12.6562H32.8438C33.3368 12.6562 33.8102 12.7408 34.25 12.8963M11.75 12.8963C10.1114 13.4754 8.9375 15.0381 8.9375 16.875V18.5213M34.25 12.8963C35.8886 13.4754 37.0625 15.0381 37.0625 16.875V18.5213M37.0625 18.5213C36.6227 18.3658 36.1493 18.2812 35.6562 18.2812H10.3438C9.85067 18.2812 9.37735 18.3658 8.9375 18.5213M37.0625 18.5213C38.7011 19.1005 39.875 20.6631 39.875 22.5V33.75C39.875 36.08 37.9862 37.9688 35.6562 37.9688H10.3438C8.0138 37.9688 6.125 36.08 6.125 33.75V22.5C6.125 20.6631 7.29895 19.1005 8.9375 18.5213" stroke="#FDFDFC" stroke-width="2" stroke-linecap="round" stroke-linejoin="round"/>
</svg>
