<svg width="46" height="45" viewBox="0 0 46 45" fill="none" xmlns="http://www.w3.org/2000/svg">
<path d="M28.625 35.8642C30.1868 36.3188 31.8383 36.5625 33.5468 36.5625C36.3195 36.5625 38.9422 35.9205 41.2745 34.7772C41.2789 34.6697 41.2812 34.5617 41.2812 34.4531C41.2812 30.1815 37.8184 26.7188 33.5468 26.7188C30.888 26.7188 28.5425 28.0603 27.1504 30.1035M28.625 35.8642V35.8594C28.625 33.7727 28.0903 31.8109 27.1504 30.1035M28.625 35.8642C28.625 35.931 28.6244 35.9978 28.6233 36.0644C25.1325 38.1661 21.0434 39.375 16.6719 39.375C12.3004 39.375 8.2112 38.1661 4.72048 36.0644C4.71933 35.9962 4.71875 35.9278 4.71875 35.8594C4.71875 29.2578 10.0703 23.9062 16.6719 23.9062C21.1867 23.9062 25.1169 26.4094 27.1504 30.1035M23 11.9531C23 15.4481 20.1668 18.2812 16.6719 18.2812C13.1769 18.2812 10.3438 15.4481 10.3438 11.9531C10.3438 8.4582 13.1769 5.625 16.6719 5.625C20.1668 5.625 23 8.4582 23 11.9531ZM38.4688 16.1719C38.4688 18.8902 36.2652 21.0938 33.5469 21.0938C30.8286 21.0938 28.625 18.8902 28.625 16.1719C28.625 13.4536 30.8286 11.25 33.5469 11.25C36.2652 11.25 38.4688 13.4536 38.4688 16.1719Z" stroke="#FDFDFC" stroke-width="2" stroke-linecap="round" stroke-linejoin="round"/>
</svg>
